<svg width="257" height="100" viewBox="0 0 257 100" fill="none" xmlns="http://www.w3.org/2000/svg">
<rect x="0.5" y="0.5" width="256" height="99" rx="7.5" fill="white" stroke="#EEF0F5"/>
<path d="M68.53 34.516C68.2873 34.516 68.0836 34.4337 67.919 34.269C67.763 34.0957 67.685 33.8877 67.685 33.645C67.685 33.411 67.763 33.216 67.919 33.06C68.0836 32.8953 68.2873 32.813 68.53 32.813C68.764 32.813 68.9633 32.8953 69.128 33.06C69.2926 33.216 69.375 33.411 69.375 33.645C69.375 33.8877 69.2926 34.0957 69.128 34.269C68.9633 34.4337 68.764 34.516 68.53 34.516ZM68.53 38.104C68.2873 38.104 68.0836 38.0217 67.919 37.857C67.763 37.6837 67.685 37.4757 67.685 37.233C67.685 36.999 67.763 36.804 67.919 36.648C68.0836 36.4833 68.2873 36.401 68.53 36.401C68.764 36.401 68.9633 36.4833 69.128 36.648C69.2926 36.804 69.375 36.999 69.375 37.233C69.375 37.4757 69.2926 37.6837 69.128 37.857C68.9633 38.0217 68.764 38.104 68.53 38.104ZM74.0351 38C73.2118 38 72.6355 37.8137 72.3061 37.441C71.9768 37.0597 71.7905 36.388 71.7471 35.426L71.5131 29.446L72.5011 29.394L72.7351 35.426C72.7525 36.0587 72.8391 36.466 72.9951 36.648C73.1511 36.8213 73.4978 36.908 74.0351 36.908H74.1651V38H74.0351ZM80.5544 34.243C81.0658 34.5203 81.4168 34.9363 81.6074 35.491C81.8068 36.0457 81.7851 36.583 81.5424 37.103C81.2998 37.6317 80.9098 37.9957 80.3724 38.195C79.8438 38.3943 79.3194 38.3727 78.7994 38.13L77.2524 37.428C76.5071 37.8093 75.6491 38 74.6784 38H74.0414V36.908H74.6784C75.0771 36.908 75.4801 36.8777 75.8874 36.817C75.3588 36.5483 74.9991 36.1323 74.8084 35.569C74.6264 35.0057 74.6698 34.4467 74.9384 33.892C75.1204 33.4933 75.4021 33.177 75.7834 32.943L75.5104 32.8L75.9654 31.825L80.5544 34.243ZM76.4204 35.881L77.2654 36.284C77.5948 36.05 77.8374 35.751 77.9934 35.387C78.1321 35.0923 78.1451 34.7977 78.0324 34.503C77.9284 34.1997 77.7334 33.9743 77.4474 33.827C77.1441 33.6797 76.8408 33.6537 76.5374 33.749C76.2428 33.8443 76.0218 34.035 75.8744 34.321C75.7184 34.6157 75.6924 34.9147 75.7964 35.218C75.9004 35.5213 76.1084 35.7423 76.4204 35.881ZM80.6714 36.674C80.8014 36.414 80.8144 36.141 80.7104 35.855C80.6064 35.569 80.4071 35.3523 80.1124 35.205L79.0724 34.659C79.1158 35.0663 79.0508 35.4607 78.8774 35.842C78.7388 36.1627 78.5264 36.4617 78.2404 36.739L79.2024 37.194C79.4711 37.324 79.7484 37.3413 80.0344 37.246C80.3291 37.142 80.5414 36.9513 80.6714 36.674ZM87.5578 33.502C88.1385 33.814 88.4938 34.3383 88.6238 35.075C88.7538 35.803 88.6281 36.5353 88.2468 37.272C88.0648 37.6273 87.7918 37.87 87.4278 38C87.0725 38.1213 86.7128 38.091 86.3488 37.909L84.0218 36.7L84.2428 41.861L83.2678 41.9L83.0338 35.816L83.7098 35.361L84.3468 35.699L85.0618 34.308C85.3045 33.84 85.6685 33.528 86.1538 33.372C86.6391 33.216 87.1071 33.2593 87.5578 33.502ZM87.4668 36.83C87.7181 36.336 87.8221 35.8637 87.7788 35.413C87.7441 34.9537 87.5535 34.633 87.2068 34.451C86.9468 34.3123 86.6781 34.2993 86.4008 34.412C86.1321 34.516 85.9198 34.7197 85.7638 35.023L85.1918 36.141L86.8688 37.012C87.1375 37.1333 87.3368 37.0727 87.4668 36.83ZM90.7064 38.039L90.3684 29.446L91.3564 29.394L91.6814 37.987L90.7064 38.039ZM98.6406 37.935C98.6839 38.3943 98.6623 38.7843 98.5756 39.105C98.4889 39.4343 98.3546 39.7073 98.1726 39.924C97.9906 40.1493 97.7003 40.3487 97.3016 40.522C96.9116 40.6953 96.5043 40.8383 96.0796 40.951C95.6549 41.0637 95.0829 41.1937 94.3636 41.341L94.1686 40.262C95.7286 39.95 96.7166 39.6727 97.1326 39.43C97.5486 39.196 97.7219 38.7323 97.6526 38.039L97.6396 37.844C97.0849 37.948 96.5173 38 95.9366 38C95.3386 38 94.8403 37.8137 94.4416 37.441C94.0516 37.0597 93.8306 36.5613 93.7786 35.946C93.7266 35.2527 93.8999 34.6243 94.2986 34.061C94.7059 33.4977 95.2476 33.203 95.9236 33.177C96.5909 33.1423 97.1499 33.372 97.6006 33.866C98.0599 34.36 98.3329 35.0143 98.4196 35.829L98.6406 37.935ZM95.9366 36.908C96.5259 36.908 97.0546 36.856 97.5226 36.752L97.4446 35.972C97.3839 35.426 97.2193 35.0013 96.9506 34.698C96.6906 34.3947 96.3613 34.2517 95.9626 34.269C95.5639 34.2863 95.2563 34.4553 95.0396 34.776C94.8229 35.0967 94.7319 35.4607 94.7666 35.868C94.7839 36.1887 94.8966 36.4443 95.1046 36.635C95.3126 36.817 95.5899 36.908 95.9366 36.908ZM111.538 36.908V38C111.217 38 110.875 37.9783 110.511 37.935C110.571 38.0477 110.606 38.156 110.615 38.26C110.675 38.676 110.645 39.04 110.524 39.352C110.402 39.664 110.194 39.9283 109.9 40.145C109.605 40.3617 109.276 40.5393 108.912 40.678C108.556 40.8167 108.114 40.9467 107.586 41.068C106.736 41.2673 105.987 41.2543 105.337 41.029C104.687 40.8123 104.197 40.4267 103.868 39.872C103.538 39.3173 103.352 38.6283 103.309 37.805C103.265 36.973 103.426 36.05 103.79 35.036L104.726 35.413C104.154 37.0423 104.119 38.286 104.622 39.144C105.124 40.0107 106.039 40.2923 107.365 39.989C107.737 39.9023 108.023 39.833 108.223 39.781C108.422 39.729 108.639 39.6553 108.873 39.56C109.107 39.4647 109.271 39.365 109.367 39.261C109.471 39.157 109.549 39.0227 109.601 38.858C109.661 38.6933 109.67 38.5027 109.627 38.286C109.566 38 109.072 37.6837 108.145 37.337C107.729 37.207 107.508 37.1377 107.482 37.129L107.794 36.076C107.889 36.102 108.058 36.154 108.301 36.232C108.543 36.3013 108.708 36.349 108.795 36.375C108.89 36.401 109.037 36.4443 109.237 36.505C109.436 36.5657 109.579 36.609 109.666 36.635C109.761 36.6523 109.891 36.6827 110.056 36.726C110.22 36.7607 110.35 36.7867 110.446 36.804C110.55 36.8213 110.671 36.8387 110.81 36.856C110.948 36.8733 111.074 36.8863 111.187 36.895C111.299 36.9037 111.416 36.908 111.538 36.908ZM113.861 35.816C113.887 36.3967 113.718 36.908 113.354 37.35C112.998 37.7833 112.448 38 111.703 38H111.378V36.908H111.703C112.171 36.908 112.487 36.804 112.652 36.596C112.816 36.388 112.89 36.1453 112.873 35.868L112.626 29.446L113.614 29.394L113.861 35.816ZM117.974 38C117.15 38 116.574 37.8137 116.245 37.441C115.915 37.0597 115.729 36.388 115.686 35.426L115.452 29.446L116.44 29.394L116.674 35.426C116.691 36.0587 116.778 36.466 116.934 36.648C117.09 36.8213 117.436 36.908 117.974 36.908H118.104V38H117.974ZM122.868 33.515C123.44 33.827 123.791 34.347 123.921 35.075C124.051 35.803 123.925 36.5397 123.544 37.285C123.371 37.623 123.106 37.857 122.751 37.987C122.396 38.117 122.027 38.091 121.646 37.909L119.982 37.051C119.497 37.6837 118.877 38 118.123 38H117.98V36.908H118.123C118.721 36.908 119.146 36.661 119.397 36.167L120.359 34.334C120.61 33.8487 120.974 33.528 121.451 33.372C121.936 33.216 122.409 33.2637 122.868 33.515ZM122.764 36.83C123.015 36.336 123.124 35.8637 123.089 35.413C123.054 34.9623 122.864 34.646 122.517 34.464C122.248 34.3167 121.98 34.2993 121.711 34.412C121.442 34.516 121.23 34.724 121.074 35.036L120.489 36.154L122.179 37.012C122.43 37.1333 122.625 37.0727 122.764 36.83ZM131.873 33.359C132.298 33.775 132.601 34.165 132.783 34.529C132.965 34.893 133.056 35.296 133.056 35.738C133.056 36.362 132.835 36.8993 132.393 37.35C131.96 37.792 131.44 38.013 130.833 38.013C130.218 38.013 129.689 37.792 129.247 37.35C128.814 36.8993 128.597 36.362 128.597 35.738C128.597 34.9927 128.931 34.295 129.598 33.645L130.131 33.125L129.689 32.696L130.378 31.903L131.873 33.359ZM129.923 36.596C130.175 36.83 130.478 36.947 130.833 36.947C131.189 36.947 131.488 36.83 131.73 36.596C131.973 36.362 132.094 36.076 132.094 35.738C132.094 35.4867 132.034 35.2483 131.912 35.023C131.8 34.7977 131.566 34.5117 131.21 34.165L130.846 33.814L130.326 34.321C129.815 34.8323 129.559 35.3047 129.559 35.738C129.559 36.0673 129.681 36.3533 129.923 36.596ZM140.744 36.908H141.381V38H140.744C140.163 38 139.695 37.7573 139.34 37.272C138.924 37.7573 138.235 38 137.273 38H136.766C136.125 38 135.613 37.8743 135.232 37.623C134.859 37.363 134.651 37.025 134.608 36.609L134.543 35.751H135.453C135.453 36.011 135.47 36.2277 135.505 36.401C135.574 36.739 135.943 36.908 136.61 36.908H137.403C137.984 36.908 138.369 36.804 138.56 36.596C138.759 36.388 138.811 36.1063 138.716 35.751V35.738L137.741 31.916L138.703 31.656L139.678 35.491C139.747 35.7423 139.799 35.933 139.834 36.063C139.877 36.193 139.938 36.336 140.016 36.492C140.103 36.6393 140.202 36.7477 140.315 36.817C140.436 36.8777 140.579 36.908 140.744 36.908ZM143.902 32.202L142.992 33.099L142.095 32.202L142.992 31.292L143.902 32.202ZM144.227 35.829C144.262 36.219 144.366 36.4963 144.539 36.661C144.713 36.8257 144.999 36.908 145.397 36.908V38C144.669 38 144.123 37.7877 143.759 37.363C143.361 37.7877 142.797 38 142.069 38H141.25V36.908H142.069C142.494 36.908 142.802 36.8257 142.992 36.661C143.183 36.4963 143.265 36.2537 143.239 35.933V35.894L143.096 34.295L144.084 34.204L144.227 35.803V35.829ZM147.914 32.202L147.004 33.099L146.107 32.202L147.004 31.292L147.914 32.202ZM148.239 35.829C148.274 36.219 148.378 36.4963 148.551 36.661C148.724 36.8257 149.01 36.908 149.409 36.908V38C148.681 38 148.135 37.7877 147.771 37.363C147.372 37.7877 146.809 38 146.081 38H145.262V36.908H146.081C146.506 36.908 146.813 36.8257 147.004 36.661C147.195 36.4963 147.277 36.2537 147.251 35.933V35.894L147.108 34.295L148.096 34.204L148.239 35.803V35.829ZM151.029 31.448L153.434 34.932C153.72 35.4 153.85 35.8637 153.824 36.323C153.798 36.7823 153.629 37.1593 153.317 37.454C152.979 37.818 152.524 38 151.952 38H149.274V36.908H151.965C152.173 36.908 152.342 36.856 152.472 36.752C152.663 36.622 152.775 36.4487 152.81 36.232C152.853 36.0067 152.814 35.7943 152.693 35.595L149.794 31.5L150.015 30.668L154.721 28.939L155.059 29.966L151.029 31.448ZM160.835 34.334L159.938 35.231L159.028 34.334L159.938 33.424L160.835 34.334ZM164.501 36.908H164.878V38H164.527C164.232 38 163.968 37.935 163.734 37.805C163.786 38.2383 163.768 38.6197 163.682 38.949C163.604 39.287 163.478 39.5643 163.305 39.781C163.14 39.9977 162.906 40.1883 162.603 40.353C162.299 40.5263 162 40.6607 161.706 40.756C161.411 40.86 161.047 40.964 160.614 41.068C159.764 41.2673 159.015 41.2543 158.365 41.029C157.715 40.8123 157.225 40.4267 156.896 39.872C156.566 39.3173 156.38 38.6283 156.337 37.805C156.293 36.973 156.454 36.05 156.818 35.036L157.754 35.413C157.182 37.0423 157.143 38.2903 157.637 39.157C158.139 40.0237 159.058 40.301 160.393 39.989C161.285 39.781 161.866 39.599 162.135 39.443C162.646 39.1397 162.85 38.6153 162.746 37.87C162.728 37.74 162.685 37.4453 162.616 36.986C162.555 36.5267 162.481 36.0327 162.395 35.504C162.317 34.9667 162.269 34.6243 162.252 34.477C162.252 34.4597 162.247 34.4337 162.239 34.399C162.23 34.3557 162.226 34.3253 162.226 34.308L163.201 34.139L163.331 35.062C163.452 35.7813 163.591 36.271 163.747 36.531C163.903 36.7823 164.154 36.908 164.501 36.908ZM168.896 35.881C168.94 36.2623 169.044 36.531 169.208 36.687C169.382 36.8343 169.668 36.908 170.066 36.908V38C169.347 38 168.801 37.7877 168.428 37.363C168.03 37.7877 167.466 38 166.738 38H164.749V36.908H166.738C167.163 36.908 167.471 36.8257 167.661 36.661C167.852 36.4963 167.934 36.2537 167.908 35.933V35.894L167.765 34.295L168.753 34.204L168.896 35.803V35.881ZM165.022 39.885L165.815 39.079L166.621 39.885L165.815 40.691L165.022 39.885ZM167.271 39.885L168.077 39.079L168.883 39.885L168.077 40.691L167.271 39.885ZM174.83 33.515C175.402 33.827 175.753 34.347 175.883 35.075C176.013 35.803 175.887 36.5397 175.506 37.285C175.333 37.623 175.068 37.857 174.713 37.987C174.358 38.117 173.989 38.091 173.608 37.909L171.944 37.051C171.459 37.6837 170.839 38 170.085 38H169.942V36.908H170.085C170.683 36.908 171.108 36.661 171.359 36.167L172.321 34.334C172.572 33.8487 172.936 33.528 173.413 33.372C173.898 33.216 174.371 33.2637 174.83 33.515ZM174.726 36.83C174.977 36.336 175.086 35.8637 175.051 35.413C175.016 34.9623 174.826 34.646 174.479 34.464C174.21 34.3167 173.942 34.2993 173.673 34.412C173.404 34.516 173.192 34.724 173.036 35.036L172.451 36.154L174.141 37.012C174.392 37.1333 174.587 37.0727 174.726 36.83ZM180.041 38C179.218 38 178.641 37.8137 178.312 37.441C177.983 37.0597 177.796 36.388 177.753 35.426L177.519 29.446L178.507 29.394L178.741 35.426C178.758 36.0587 178.845 36.466 179.001 36.648C179.157 36.8213 179.504 36.908 180.041 36.908H180.171V38H180.041ZM181.724 32.033L180.918 31.24L181.724 30.434L182.53 31.24L181.724 32.033ZM183.973 32.033L183.18 31.24L183.973 30.434L184.779 31.24L183.973 32.033ZM180.047 38V36.908H181.945C183.124 36.908 183.562 36.3533 183.258 35.244L182.751 33.307L183.7 33.034L184.233 35.023C184.485 35.9503 184.372 36.6783 183.895 37.207C183.419 37.7357 182.769 38 181.945 38H180.047Z" fill="#152C6A"/>
<path d="M121.332 64.504C121.887 65.016 122.287 65.528 122.532 66.04C122.788 66.552 122.916 67.128 122.916 67.768C122.916 68.664 122.612 69.432 122.004 70.072C121.396 70.712 120.655 71.032 119.78 71.032C118.905 71.032 118.159 70.712 117.54 70.072C116.932 69.432 116.628 68.664 116.628 67.768C116.628 66.7333 117.076 65.768 117.972 64.872L118.26 64.584L117.844 64.184L119.236 62.552L121.332 64.504ZM118.932 68.52C119.156 68.7227 119.439 68.824 119.78 68.824C120.121 68.824 120.399 68.7227 120.612 68.52C120.836 68.3173 120.948 68.0667 120.948 67.768C120.948 67.5227 120.884 67.2933 120.756 67.08C120.628 66.856 120.367 66.5573 119.972 66.184L119.764 65.992L119.492 66.264C118.895 66.8613 118.596 67.3627 118.596 67.768C118.596 68.0667 118.708 68.3173 118.932 68.52ZM132.535 68.728H133.319V71H132.535C131.831 71 131.249 70.76 130.791 70.28C130.204 70.76 129.441 71 128.503 71H127.495C126.663 71 125.98 70.7867 125.447 70.36C124.924 69.9333 124.652 69.4053 124.631 68.776L124.615 67.736H126.471C126.471 68.024 126.481 68.2427 126.503 68.392C126.524 68.616 126.737 68.728 127.143 68.728H128.775C129.137 68.728 129.388 68.6693 129.527 68.552C129.665 68.424 129.713 68.2533 129.671 68.04L129.623 67.848L128.439 63.16L130.407 62.616C130.897 64.5253 131.297 66.0933 131.607 67.32C131.745 67.8853 131.868 68.264 131.975 68.456C132.092 68.6373 132.279 68.728 132.535 68.728ZM136.85 63.224L135.362 64.712L133.89 63.224L135.362 61.752L136.85 63.224ZM138.258 68.728V71C137.426 71 136.754 70.7867 136.242 70.36C135.698 70.7867 135.005 71 134.162 71H133.154V68.728H134.162C134.578 68.728 134.861 68.6747 135.01 68.568C135.16 68.4613 135.224 68.28 135.202 68.024V67.992L135.026 66.024L137.042 65.832L137.218 67.8V67.816C137.25 68.1787 137.336 68.424 137.474 68.552C137.613 68.6693 137.874 68.728 138.258 68.728ZM138.092 71V68.728H140.54C141.095 68.728 141.473 68.6213 141.676 68.408C141.889 68.1947 141.921 67.816 141.772 67.272L141.148 64.888L143.084 64.312L143.756 66.808C144.087 68.0347 143.932 69.0427 143.292 69.832C142.652 70.6107 141.735 71 140.54 71H138.092ZM138.252 74.664L136.94 73.368L138.252 72.056L139.564 73.368L138.252 74.664ZM141.436 74.664L140.14 73.368L141.436 72.056L142.764 73.368L141.436 74.664ZM144.703 61.096V60.728C144.703 60.2053 144.874 59.8 145.215 59.512C145.567 59.224 146.01 59.128 146.543 59.224L148.159 59.528C148.575 59.6027 148.783 59.4853 148.783 59.176V59.096L149.807 59.032V59.4C149.807 59.9227 149.631 60.328 149.279 60.616C148.938 60.8933 148.5 60.984 147.967 60.888L146.351 60.584C145.935 60.5093 145.727 60.632 145.727 60.952V61.016L144.703 61.096ZM146.527 71.064L146.159 61.608L148.191 61.512L148.543 70.968L146.527 71.064ZM169.636 68.728H169.86V71H169.636C168.772 71 167.983 70.6587 167.268 69.976L167.22 70.04C166.74 70.68 165.993 71 164.98 71H161.508C159.769 71 158.591 70.9733 157.972 70.92C157.364 70.8667 156.831 70.7387 156.372 70.536C155.647 70.216 155.145 69.7093 154.868 69.016C154.591 68.3227 154.564 67.5387 154.788 66.664L155.396 64.328L157.348 64.92L156.724 67.336C156.639 67.656 156.628 67.896 156.692 68.056C156.756 68.2053 156.916 68.3387 157.172 68.456C157.407 68.552 157.796 68.6213 158.34 68.664C158.884 68.7067 159.967 68.728 161.588 68.728H165.012C165.225 68.728 165.375 68.6907 165.46 68.616C165.727 68.4027 165.748 68.1307 165.524 67.8L162.004 62.808L162.452 61.096L168.244 58.968L168.948 61.08L164.532 62.712L167.06 66.44C167.113 66.5147 167.183 66.6267 167.268 66.776C167.727 67.544 168.121 68.0613 168.452 68.328C168.783 68.5947 169.177 68.728 169.636 68.728ZM171.813 63.432L170.341 61.96L171.813 60.472L173.301 61.96L171.813 63.432ZM169.701 71V68.728H170.965C171.541 68.728 171.931 68.6267 172.133 68.424C172.336 68.2107 172.363 67.8267 172.213 67.272L171.573 64.888L173.525 64.312L174.165 66.696C174.507 67.9653 174.363 69 173.733 69.8C173.104 70.6 172.181 71 170.965 71H169.701ZM179.573 71C178.442 71 177.637 70.728 177.157 70.184C176.677 69.64 176.41 68.7013 176.357 67.368L176.069 60.008L178.085 59.912L178.373 67.368C178.384 67.9973 178.448 68.3813 178.565 68.52C178.693 68.6587 179.029 68.728 179.573 68.728H179.733V71H179.573ZM179.576 71V68.728H180.84C181.416 68.728 181.806 68.6267 182.008 68.424C182.211 68.2107 182.238 67.8267 182.088 67.272L181.448 64.888L183.4 64.312L184.04 66.696C184.382 67.9653 184.238 69 183.608 69.8C182.979 70.6 182.056 71 180.84 71H179.576ZM180.744 74.84L179.272 73.352L180.744 71.88L182.232 73.352L180.744 74.84Z" fill="#88391C"/>
<rect x="197" y="24" width="48" height="48" rx="8" fill="#EFAF1D"/>
<path fill-rule="evenodd" clip-rule="evenodd" d="M200.579 27.5345C199.276 28.8174 199.145 29.8866 199.145 39.2992V49.6526L201.833 45.8778C204.799 41.7127 209.408 38.8257 213.093 38.8257C216.778 38.8257 219.352 40.7396 224.944 43.4128C230.221 45.9357 233.706 47.9998 236.596 47.9998C241.748 47.9998 243.576 44.6795 243.576 35.3198C243.576 25.5825 244.882 26.1231 221.361 26.1231C202.967 26.1231 201.941 26.1929 200.579 27.5345ZM241.144 49.8234C238.208 54.3977 234.229 56.8211 229.654 56.8211C226.688 56.8211 224.678 56.1472 218.736 53.1599C209.692 48.6138 206.17 47.5941 203.408 48.7204C200.266 50.0026 199.145 53.2157 199.145 60.9452C199.145 70.4207 197.787 69.8766 221.441 69.8766C238.577 69.8766 240.709 69.7489 242.088 68.6416C243.552 67.4652 243.615 66.9119 243.421 57.0004L243.217 46.5941L241.144 49.8234Z" fill="#88391C"/>
</svg>
