<svg width="135" height="40" viewBox="0 0 135 40" fill="none" xmlns="http://www.w3.org/2000/svg">
<g clip-path="url(#clip0_20908_86179)">
<path d="M0.5 4C0.5 2.067 2.067 0.5 4 0.5H131C132.933 0.5 134.5 2.06701 134.5 4V36C134.5 37.9329 132.933 39.5 131 39.5H4C2.06701 39.5 0.5 37.933 0.5 36V4Z" fill="white" stroke="#E7EAF1"/>
<path d="M106.231 15.1546C106.073 15.3189 105.992 15.5171 105.992 15.749C105.992 15.981 106.073 16.1815 106.231 16.3506C106.391 16.5198 106.588 16.6043 106.821 16.6043C107.047 16.6043 107.239 16.5198 107.398 16.3506C107.557 16.1815 107.637 15.981 107.637 15.749C107.637 15.5171 107.557 15.3189 107.398 15.1546C107.239 14.9903 107.047 14.9082 106.821 14.9082C106.588 14.9082 106.391 14.9903 106.231 15.1546Z" fill="#0C0C0C"/>
<path fill-rule="evenodd" clip-rule="evenodd" d="M104.135 22.5769H104.04C103.767 22.5769 103.508 22.5503 103.26 22.4972C103.012 22.444 102.788 22.3353 102.592 22.171C102.32 22.4416 101.978 22.5769 101.566 22.5769H95.9171C95.4031 22.5769 95.019 22.4223 94.7661 22.113C94.512 21.8037 94.3867 21.364 94.3867 20.7938V19.1266H95.4546V20.6198C95.4546 20.9291 95.5166 21.1441 95.6443 21.2649C95.7696 21.3857 95.9733 21.4461 96.2543 21.4461H101.341C101.631 21.4461 101.819 21.3785 101.903 21.2432C101.988 21.1079 102.029 20.9013 102.029 20.6198V19.1266H103.125V20.6778C103.125 20.9774 103.221 21.1803 103.415 21.2867C103.607 21.393 103.814 21.4461 104.04 21.4461L107.074 21.4462C107.412 21.4462 107.629 21.3762 107.728 21.236C107.826 21.0959 107.871 20.9292 107.861 20.7359L106.484 20.6924C106.006 20.6731 105.66 20.5088 105.444 20.1995C105.229 19.8902 105.121 19.494 105.121 19.0107C105.121 18.7498 105.165 18.5094 105.254 18.2859C105.344 18.0636 105.468 17.8703 105.627 17.706C105.786 17.5417 105.976 17.4136 106.196 17.3218C106.416 17.23 106.662 17.1841 106.934 17.1841C107.251 17.1841 107.533 17.2529 107.777 17.387C108.02 17.5223 108.224 17.6987 108.388 17.9162C108.552 18.1336 108.675 18.3801 108.76 18.6555C108.845 18.931 108.887 19.2137 108.887 19.5036V20.33C108.887 20.6296 108.854 20.9147 108.789 21.1853C108.722 21.4571 108.621 21.6951 108.486 21.9029C108.351 22.1119 108.179 22.275 107.974 22.3958C107.768 22.5166 107.524 22.577 107.243 22.577H104.152L104.135 22.5769ZM107.784 19.1484C107.835 19.3078 107.861 19.4661 107.861 19.6195L106.709 19.576C106.559 19.5676 106.407 19.5301 106.252 19.4673C106.098 19.4045 106.02 19.2716 106.02 19.0686C106.02 18.856 106.079 18.6772 106.196 18.5322C106.313 18.3873 106.52 18.3148 106.82 18.3148C106.981 18.3148 107.123 18.3534 107.25 18.4308C107.376 18.5093 107.484 18.6071 107.573 18.7279C107.662 18.8488 107.732 18.9889 107.784 19.1484Z" fill="#0C0C0C"/>
<path d="M90.5921 22.5767H89.5664V15.5166H90.5921V22.5767Z" fill="#0C0C0C"/>
<path d="M86.7701 16.5028C86.6097 16.6671 86.5312 16.8652 86.5312 17.0971C86.5312 17.3291 86.6097 17.5296 86.7701 17.6988C86.9294 17.8679 87.1262 17.9525 87.3604 17.9525C87.5852 17.9525 87.7759 17.8679 87.9364 17.6988C88.0956 17.5296 88.1752 17.3291 88.1752 17.0971C88.1752 16.8652 88.0956 16.6671 87.9364 16.5028C87.7759 16.3385 87.5852 16.2563 87.3604 16.2563C87.1262 16.2563 86.9294 16.3385 86.7701 16.5028Z" fill="#0C0C0C"/>
<path d="M86.2717 23.8096C85.9485 24.0899 85.4591 24.23 84.8034 24.23H84.1289L84.3256 25.3608L85.1968 25.3753C85.609 25.3838 85.9813 25.3125 86.3127 25.1579C86.6464 25.0032 86.9274 24.7906 87.1569 24.52C87.3853 24.2494 87.5644 23.9304 87.6909 23.5632C87.8174 23.1959 87.8806 22.7996 87.8806 22.3744V19.127H86.7565V22.6498C86.7565 23.1427 86.5949 23.5293 86.2717 23.8096Z" fill="#0C0C0C"/>
<path d="M98.8555 17.5031C98.8555 17.3001 98.9246 17.1261 99.0604 16.9812C99.1951 16.8362 99.3625 16.7637 99.5593 16.7637C99.756 16.7637 99.9211 16.8362 100.057 16.9812C100.194 17.1261 100.261 17.3001 100.261 17.5031C100.261 17.6964 100.194 17.8631 100.057 18.0032C99.9211 18.1434 99.756 18.2134 99.5593 18.2134C99.3625 18.2134 99.1951 18.1434 99.0604 18.0032C98.9246 17.8631 98.8555 17.6964 98.8555 17.5031Z" fill="#0C0C0C"/>
<path d="M96.9414 17.5031C96.9414 17.3001 97.0105 17.1261 97.1452 16.9812C97.281 16.8362 97.4531 16.7637 97.658 16.7637C97.8466 16.7637 98.007 16.8362 98.144 16.9812C98.2798 17.1261 98.3465 17.3001 98.3465 17.5031C98.3465 17.6964 98.2798 17.8631 98.144 18.0032C98.007 18.1434 97.8466 18.2134 97.658 18.2134C97.4531 18.2134 97.281 18.1434 97.1452 18.0032C97.0105 17.8631 96.9414 17.6964 96.9414 17.5031Z" fill="#0C0C0C"/>
<path d="M112.342 22.5772C111.797 22.5772 111.367 22.4347 111.049 22.1496C110.73 21.8645 110.57 21.4018 110.57 20.7651V15.5171H111.638V20.5766C111.638 20.9427 111.712 21.1807 111.857 21.287C112.002 21.3933 112.201 21.4452 112.454 21.4452L114.126 21.4457C114.303 21.4457 114.447 21.4252 114.554 21.3805C114.662 21.337 114.744 21.279 114.8 21.2078C114.856 21.1341 114.892 21.0471 114.906 20.9456C114.92 20.8441 114.927 20.7354 114.927 20.6206V19.1274H116.023V20.7934C116.023 21.3346 115.894 21.7683 115.636 22.0909C115.378 22.4158 114.983 22.5777 114.448 22.5777H112.707C112.695 22.5777 112.684 22.5776 112.673 22.5772H112.342Z" fill="#0C0C0C"/>
<path d="M114.091 23.9765C113.955 24.1155 113.887 24.2834 113.887 24.4755C113.887 24.6796 113.955 24.8524 114.091 24.9986C114.227 25.1436 114.398 25.2148 114.604 25.2148C114.79 25.2148 114.953 25.1436 115.089 24.9986C115.225 24.8524 115.293 24.6796 115.293 24.4755C115.293 24.2834 115.225 24.1155 115.089 23.9765C114.953 23.8364 114.79 23.7651 114.604 23.7651C114.398 23.7651 114.227 23.8364 114.091 23.9765Z" fill="#0C0C0C"/>
<path d="M112.294 23.9765C112.158 24.1155 112.09 24.2834 112.09 24.4755C112.09 24.6796 112.158 24.8524 112.294 24.9986C112.429 25.1436 112.596 25.2148 112.791 25.2148C112.989 25.2148 113.155 25.1436 113.291 24.9986C113.426 24.8524 113.495 24.6796 113.495 24.4755C113.495 24.2834 113.426 24.1155 113.291 23.9765C113.155 23.8364 112.989 23.7651 112.791 23.7651C112.596 23.7651 112.429 23.8364 112.294 23.9765Z" fill="#0C0C0C"/>
<path d="M117.926 23.8087C118.248 23.5297 118.411 23.1419 118.411 22.649V19.1274H119.535V22.3747C119.535 22.7988 119.471 23.195 119.346 23.5623C119.219 23.9308 119.04 24.2485 118.812 24.5191C118.582 24.7897 118.3 24.9999 117.967 25.1497C117.636 25.2995 117.264 25.3744 116.851 25.3744L116.374 25.3599L116.191 24.2304H116.458C117.114 24.2304 117.603 24.089 117.926 23.8087Z" fill="#0C0C0C"/>
<path d="M120.941 21.461L121.08 22.5773H124.412C124.935 22.5773 125.332 22.4371 125.598 22.1557C125.865 21.8766 125.998 21.5432 125.998 21.1566C125.998 20.9427 125.954 20.7265 125.865 20.5042C125.777 20.2819 125.642 20.0741 125.464 19.8808L123.075 17.2568L122.36 18.0107L124.763 20.6347C124.883 20.77 124.945 20.9101 124.945 21.0551C124.945 21.1614 124.903 21.2556 124.818 21.3378C124.734 21.4199 124.608 21.461 124.438 21.461H120.941Z" fill="#0C0C0C"/>
<path fill-rule="evenodd" clip-rule="evenodd" d="M27.8148 13.8793C30 14.0439 34.4963 14.6695 35 15.8548C34.7531 18.4537 33.8667 24.3004 32.2963 26.8969C30.3333 30.1425 27.1111 33 22 33C16.8889 33 13.6667 30.1425 11.7037 26.8969C10.1333 24.3004 9.24691 18.4537 9 15.8548C9.5037 14.6695 14 14.0439 16.1852 13.8793C16.3951 13.2913 17.0889 11.6073 18.1852 9.5753C19.2815 7.54328 20.7037 7 22 7C23.2963 7 24.7185 7.54328 25.8148 9.5753C26.9111 11.6073 27.6049 13.2913 27.8148 13.8793ZM22 9.22252C22.7778 9.22252 23.6296 10.2809 23.963 10.8806C24.2296 11.3604 24.9259 12.9385 25.2222 13.6676H18.7778C19.0741 12.9385 19.7704 11.3604 20.037 10.8806C20.3704 10.2809 21.2222 9.22252 22 9.22252Z" fill="url(#paint0_linear_20908_86179)"/>
<path d="M54.0508 21.0253C54.0508 22.2332 55.0311 23.2136 56.2391 23.2136C57.4497 23.2136 58.43 22.2332 58.4273 21.0253V10.1883C58.4273 8.98032 57.447 8 56.2391 8C55.0311 8 54.0508 8.98032 54.0508 10.1883V21.0253Z" fill="black"/>
<path d="M71.4815 21.0653H75.8313C77.0286 21.0653 78.0009 22.0349 77.9982 23.2349C77.9982 24.4321 77.0259 25.4044 75.8286 25.4044H70.3887C68.5835 25.4044 67.1211 23.942 67.1211 22.1367V12.3497C67.1211 11.1444 68.0987 10.1694 69.3013 10.1694C70.5066 10.1694 71.4815 11.1471 71.4815 12.3497V21.0653Z" fill="black"/>
<path d="M47.53 14.4927C47.53 13.2874 48.5077 12.3125 49.7103 12.3125C50.9129 12.3125 51.8905 13.2874 51.8879 14.4927V22.137C51.8879 23.9423 50.4254 25.4047 48.6202 25.4047H43.1695C41.9723 25.4047 41 24.4324 41 23.2352C41 22.0379 41.9723 21.0656 43.1695 21.0656H47.53V14.4927Z" fill="black"/>
<path d="M62.7727 16.6543C61.5701 16.6543 60.5925 17.6292 60.5925 18.8345V25.4074H56.232C55.0347 25.4074 54.0625 26.3797 54.0625 27.5769C54.0625 28.7742 55.0347 29.7465 56.232 29.7465H61.6826C63.4879 29.7465 64.9503 28.284 64.9503 26.4788V18.8345C64.9503 17.6292 63.9754 16.6543 62.7727 16.6543Z" fill="black"/>
<path d="M62.7734 14.5302C63.9924 14.5302 64.9805 13.5421 64.9805 12.3232C64.9805 11.1043 63.9924 10.1162 62.7734 10.1162C61.5545 10.1162 60.5664 11.1043 60.5664 12.3232C60.5664 13.5421 61.5545 14.5302 62.7734 14.5302Z" fill="black"/>
<path d="M71.5391 29.7275C71.5391 30.9464 70.551 31.9345 69.3321 31.9345C68.1131 31.9345 67.125 30.9464 67.125 29.7275C67.125 28.5086 68.1131 27.5205 69.3321 27.5205C70.551 27.5205 71.5391 28.5086 71.5391 29.7275Z" fill="black"/>
</g>
<defs>
<linearGradient id="paint0_linear_20908_86179" x1="22" y1="7" x2="22" y2="33" gradientUnits="userSpaceOnUse">
<stop stop-color="#8FC345"/>
<stop offset="1" stop-color="#118F4E"/>
</linearGradient>
<clipPath id="clip0_20908_86179">
<rect width="135" height="40" rx="3" fill="white"/>
</clipPath>
</defs>
</svg>
