<svg width="81" height="80" viewBox="0 0 81 80" fill="none" xmlns="http://www.w3.org/2000/svg">
<path d="M28.1816 34.183L22.7597 36.9875C21.7196 37.5256 21.0664 38.5988 21.0664 39.7698V59.4401C21.0664 61.6876 23.3633 63.2038 25.43 62.3204L28.4108 61.0463C29.189 60.7137 30.0687 60.7101 30.8496 61.0364L43.9352 66.504C44.7215 66.8326 45.6078 66.8266 46.3897 66.4874L64.8431 58.4805C65.988 57.9838 66.7287 56.8549 66.7287 55.6069V35.612C66.7287 33.2687 64.2501 31.7551 62.1655 32.8254L46.6094 40.8128C45.7042 41.2775 44.6297 41.2737 43.7279 40.8025L31.0714 34.189C30.1667 33.7163 29.0883 33.714 28.1816 34.183Z" fill="#95E4C1"/>
<path d="M40.0928 29.1281L30.2761 23.1825C29.9591 22.9905 29.5641 22.9809 29.2382 23.1573L14.5472 31.1068C14.2101 31.2892 14 31.6417 14 32.0251V58.2475C14 58.9988 14.7695 59.5042 15.4589 59.2057L29.3422 53.1958C29.6112 53.0794 29.9167 53.0813 30.1842 53.2012L44.9851 59.8373M44.9851 59.8373L60.652 53.2813C61.0404 53.1188 61.2931 52.739 61.2931 52.3181V39.3645M44.9851 59.8373V46.1888" stroke="#0B2C6E" stroke-width="2.61035" stroke-linecap="round"/>
<path d="M29.7637 52.4435V23.4404" stroke="#0B2C6E" stroke-width="2.61035" stroke-linecap="round"/>
<path d="M52.0498 12C49.2875 12.003 46.6391 13.1017 44.6859 15.055C42.7326 17.0083 41.6339 19.6566 41.6309 22.419C41.6309 27.9223 50.3828 35.4771 51.3768 36.321L52.0498 36.8899L52.7229 36.321C53.7169 35.4771 62.4688 27.9223 62.4688 22.419C62.4658 19.6566 61.3671 17.0083 59.4138 15.055C57.4605 13.1017 54.8122 12.003 52.0498 12ZM52.0498 27.6285C51.0195 27.6285 50.0123 27.3229 49.1556 26.7505C48.2989 26.1781 47.6312 25.3645 47.2369 24.4126C46.8426 23.4607 46.7394 22.4132 46.9404 21.4027C47.1415 20.3921 47.6376 19.4639 48.3662 18.7353C49.0947 18.0068 50.023 17.5106 51.0335 17.3096C52.0441 17.1086 53.0915 17.2117 54.0434 17.606C54.9953 18.0003 55.8089 18.668 56.3814 19.5247C56.9538 20.3814 57.2593 21.3886 57.2593 22.419C57.2577 23.8001 56.7083 25.1242 55.7317 26.1008C54.7551 27.0774 53.431 27.6268 52.0498 27.6285Z" fill="#0B2C6E"/>
<path d="M52.0495 25.5448C53.7758 25.5448 55.1752 24.1454 55.1752 22.4192C55.1752 20.6929 53.7758 19.2935 52.0495 19.2935C50.3232 19.2935 48.9238 20.6929 48.9238 22.4192C48.9238 24.1454 50.3232 25.5448 52.0495 25.5448Z" fill="#0B2C6E"/>
</svg>
