<svg width="81" height="80" viewBox="0 0 81 80" fill="none" xmlns="http://www.w3.org/2000/svg">
<rect x="26" y="32.0005" width="41" height="29" rx="6.12958" fill="#95E4C1"/>
<path d="M14 24.1296V46.8704C14 50.2557 16.7443 53 20.1296 53H53.8704C57.2557 53 60 50.2557 60 46.8704V24.1296C60 20.7443 57.2557 18 53.8704 18H20.1296C16.7443 18 14 20.7443 14 24.1296Z" stroke="#0B2C6E" stroke-width="2.88865"/>
<path d="M30 62L32.4194 53H42.5806L45 62H30Z" stroke="#0B2C6E" stroke-width="2.88865"/>
<path d="M22.4805 62.0005H51.2276" stroke="#0B2C6E" stroke-width="2.88865" stroke-linecap="round"/>
<g clip-path="url(#clip0_35052_41988)">
<path d="M41.7427 43.5068L40.8003 42.5644L39.2866 41.0533L41.7269 38.6129C41.8308 38.5089 41.9068 38.3803 41.9479 38.2392C41.989 38.098 41.9938 37.9488 41.962 37.8052C41.9301 37.6617 41.8627 37.5285 41.7658 37.4179C41.6689 37.3074 41.5457 37.223 41.4076 37.1726L33.5597 34.3254C33.2471 34.2124 32.9088 34.1908 32.5843 34.2631C32.2599 34.3353 31.9627 34.4985 31.7276 34.7335C31.4926 34.9685 31.3293 35.2656 31.2569 35.59C31.1845 35.9144 31.2059 36.2527 31.3188 36.5654L34.1739 44.4133C34.2241 44.5515 34.3082 44.6749 34.4186 44.772C34.5291 44.8691 34.6622 44.9368 34.8057 44.9689C34.8681 44.9825 34.9317 44.9892 34.9956 44.989C35.2276 44.989 35.4501 44.8967 35.6142 44.7326L38.0519 42.2879L39.5631 43.799L40.5054 44.7414C40.6705 44.9008 40.8915 44.989 41.1209 44.987C41.3503 44.985 41.5698 44.893 41.732 44.7307C41.8943 44.5685 41.9863 44.349 41.9883 44.1196C41.9903 43.8902 41.9021 43.6692 41.7427 43.5041V43.5068ZM35.3491 42.5198L32.9656 35.966L39.5193 38.3495L35.3491 42.5198Z" fill="#0B2C6E"/>
<path d="M29.75 41.5005C28.0194 41.5005 26.3277 40.9873 24.8888 40.0259C23.4498 39.0644 22.3283 37.6978 21.6661 36.099C21.0038 34.5001 20.8305 32.7408 21.1681 31.0435C21.5058 29.3461 22.3391 27.787 23.5628 26.5633C24.7865 25.3396 26.3456 24.5062 28.043 24.1686C29.7403 23.831 31.4996 24.0043 33.0985 24.6665C34.6973 25.3288 36.0639 26.4503 37.0254 27.8893C37.9868 29.3282 38.5 31.0199 38.5 32.7505C38.5 32.9826 38.4078 33.2051 38.2437 33.3692C38.0796 33.5333 37.8571 33.6255 37.625 33.6255C37.3929 33.6255 37.1704 33.5333 37.0063 33.3692C36.8422 33.2051 36.75 32.9826 36.75 32.7505C36.75 31.366 36.3395 30.0126 35.5703 28.8615C34.8011 27.7104 33.7079 26.8131 32.4288 26.2833C31.1497 25.7535 29.7422 25.6149 28.3844 25.885C27.0265 26.1551 25.7792 26.8218 24.8003 27.8007C23.8213 28.7797 23.1546 30.027 22.8845 31.3849C22.6144 32.7427 22.753 34.1502 23.2828 35.4293C23.8127 36.7084 24.7099 37.8016 25.861 38.5708C27.0122 39.34 28.3655 39.7505 29.75 39.7505C29.9821 39.7505 30.2046 39.8427 30.3687 40.0068C30.5328 40.1709 30.625 40.3934 30.625 40.6255C30.625 40.8576 30.5328 41.0801 30.3687 41.2442C30.2046 41.4083 29.9821 41.5005 29.75 41.5005Z" fill="#0B2C6E"/>
<path d="M28.0773 37.6684C27.9623 37.6684 27.8484 37.6458 27.7421 37.6019C26.9449 37.2707 26.2416 36.7481 25.6945 36.0803C25.1475 35.4125 24.7735 34.62 24.6059 33.7732C24.4382 32.9264 24.4819 32.0512 24.7332 31.2253C24.9844 30.3994 25.4355 29.6482 26.0464 29.0383C26.6573 28.4283 27.4092 27.9784 28.2355 27.7284C29.0618 27.4784 29.9369 27.436 30.7835 27.605C31.6301 27.774 32.422 28.1491 33.0889 28.6972C33.7559 29.2453 34.2775 29.9494 34.6074 30.7471C34.6536 30.8537 34.6782 30.9684 34.6796 31.0846C34.681 31.2008 34.6593 31.3161 34.6157 31.4237C34.5721 31.5314 34.5075 31.6294 34.4256 31.7118C34.3438 31.7943 34.2463 31.8596 34.139 31.904C34.0316 31.9484 33.9165 31.9709 33.8003 31.9704C33.6841 31.9698 33.5692 31.9461 33.4623 31.9006C33.3554 31.8551 33.2586 31.7888 33.1776 31.7056C33.0965 31.6223 33.0329 31.5237 32.9904 31.4156C32.7699 30.8843 32.4219 30.4154 31.9771 30.0506C31.5323 29.6858 31.0044 29.4362 30.4402 29.324C29.876 29.2118 29.2928 29.2404 28.7423 29.4073C28.1918 29.5742 27.6908 29.8742 27.2839 30.2808C26.8769 30.6873 26.5764 31.188 26.409 31.7383C26.2416 32.2887 26.2125 32.8719 26.3241 33.4362C26.4358 34.0005 26.6848 34.5286 27.0492 34.9738C27.4136 35.4189 27.8821 35.7674 28.4133 35.9884C28.6004 36.0658 28.7549 36.2058 28.8504 36.3845C28.9459 36.5632 28.9764 36.7695 28.9367 36.9681C28.8971 37.1668 28.7897 37.3455 28.633 37.4739C28.4763 37.6022 28.2798 37.6722 28.0773 37.6719V37.6684Z" fill="#0B2C6E"/>
</g>
<path d="M58.498 45.5H47.998" stroke="#0B2C6E" stroke-width="2.04319" stroke-linecap="round"/>
<path d="M25.498 46.0005H14.998" stroke="#0B2C6E" stroke-width="2.04319" stroke-linecap="round"/>
<defs>
<clipPath id="clip0_35052_41988">
<rect width="21" height="21" fill="white" transform="translate(21 24.0005)"/>
</clipPath>
</defs>
</svg>
