<svg width="150" height="40" viewBox="0 0 150 40" fill="none" xmlns="http://www.w3.org/2000/svg">
<rect width="150" height="40" rx="3" fill="white"/>
<path d="M29.5748 32.42C28.1048 33.845 26.4998 33.62 24.9548 32.945C23.3198 32.255 21.8198 32.225 20.0948 32.945C17.9348 33.875 16.7948 33.605 15.5048 32.42C8.18476 24.875 9.26476 13.385 17.5748 12.965C19.5998 13.07 21.0098 14.075 22.1948 14.165C23.9648 13.805 25.6598 12.77 27.5498 12.905C29.8148 13.085 31.5248 13.985 32.6498 15.605C27.9698 18.41 29.0798 24.575 33.3698 26.3C32.5148 28.55 31.4048 30.785 29.5598 32.435L29.5748 32.42ZM22.0448 12.875C21.8198 9.53 24.5348 6.77 27.6548 6.5C28.0898 10.37 24.1448 13.25 22.0448 12.875Z" fill="black"/>
<path d="M119.128 15.26C119.088 15.2667 119.028 15.27 118.948 15.27C118.614 15.27 118.294 15.1533 117.988 14.92C117.681 14.68 117.471 14.3933 117.358 14.06C117.298 13.88 117.268 13.6967 117.268 13.51C117.268 13.1367 117.374 12.7933 117.588 12.48C117.808 12.16 118.094 11.9433 118.448 11.83L119.858 11.36V10.94H120.788V13.91C120.788 14.2033 120.894 14.4533 121.108 14.66C121.321 14.86 121.581 14.96 121.888 14.96H122.078L122.138 15.48L122.078 16H121.888C121.541 16 121.218 15.92 120.918 15.76C120.624 15.5933 120.388 15.37 120.208 15.09C119.708 15.1767 119.348 15.2333 119.128 15.26ZM118.228 13.69C118.268 13.8367 118.354 13.9667 118.488 14.08C118.628 14.1867 118.778 14.24 118.938 14.24C118.991 14.24 119.031 14.2367 119.058 14.23L119.868 14.1C119.861 14.06 119.858 13.9967 119.858 13.91V12.38L118.738 12.77C118.564 12.8233 118.431 12.9167 118.338 13.05C118.244 13.1767 118.198 13.32 118.198 13.48C118.198 13.5467 118.208 13.6167 118.228 13.69ZM121.981 14.96H122.141C122.995 14.96 123.895 14.8267 124.841 14.56L127.081 13.92L125.141 12.95C124.961 12.85 124.775 12.8 124.581 12.8C124.388 12.8 124.205 12.8533 124.031 12.96C123.858 13.0667 123.718 13.2133 123.611 13.4L123.431 13.72L122.631 13.22L122.821 12.87C123.021 12.51 123.271 12.2367 123.571 12.05C123.871 11.8633 124.198 11.77 124.551 11.77C124.891 11.77 125.238 11.8633 125.591 12.05L128.161 13.45L128.021 14.63L127.741 14.72C127.888 14.88 128.078 14.96 128.311 14.96H128.951L129.011 15.48L128.951 16H128.311C127.985 16 127.685 15.91 127.411 15.73C127.145 15.5433 126.941 15.3033 126.801 15.01L125.101 15.55C124.135 15.85 123.145 16 122.131 16H121.981V14.96ZM123.951 9.83H125.061V10.94H123.951V9.83ZM134.076 16C133.57 16 133.16 15.8067 132.846 15.42C132.54 15.8067 132.11 16 131.556 16C131.056 16 130.66 15.8067 130.366 15.42C130.046 15.8067 129.623 16 129.096 16H128.846V14.96H129.096C129.416 14.96 129.633 14.8933 129.746 14.76C129.86 14.6267 129.916 14.4567 129.916 14.25V13.02H130.786V14.25C130.786 14.3967 130.836 14.5533 130.936 14.72C131.036 14.88 131.243 14.96 131.556 14.96C131.876 14.96 132.09 14.8967 132.196 14.77C132.31 14.6367 132.366 14.4633 132.366 14.25V13.02H133.236V14.26C133.236 14.3933 133.286 14.5433 133.386 14.71C133.493 14.87 133.703 14.95 134.016 14.95C134.31 14.95 134.523 14.9 134.656 14.8C134.796 14.7 134.866 14.57 134.866 14.41C134.866 14.35 134.856 14.29 134.836 14.23L134.506 13L135.346 12.75L135.676 13.98L135.696 14.05C135.77 14.3233 135.913 14.5433 136.126 14.71C136.34 14.8767 136.586 14.96 136.866 14.96L136.926 15.48L136.866 16C136.58 16 136.316 15.9467 136.076 15.84C135.836 15.7267 135.626 15.57 135.446 15.37C135.3 15.5633 135.11 15.7167 134.876 15.83C134.643 15.9433 134.376 16 134.076 16ZM136.766 14.96H137.556C137.876 14.96 138.123 14.9067 138.296 14.8C138.476 14.6933 138.566 14.51 138.566 14.25C138.566 14.1167 138.543 13.97 138.496 13.81L138.096 12.32L138.996 12.06L139.396 13.55C139.463 13.79 139.496 14.0233 139.496 14.25C139.496 14.7967 139.313 15.2267 138.946 15.54C138.58 15.8467 138.116 16 137.556 16H136.766V14.96ZM137.566 10.09H138.676V11.2H137.566V10.09ZM69.8704 30C69.7864 30 69.6791 29.9907 69.5484 29.972C69.5017 30.8773 69.1704 31.582 68.5544 32.086C67.9384 32.5993 66.9864 33.0053 65.6984 33.304C65.2597 33.4067 64.8117 33.458 64.3544 33.458C63.5424 33.458 62.8331 33.2713 62.2264 32.898C61.6197 32.5247 61.1531 31.9973 60.8264 31.316C60.5091 30.644 60.3504 29.86 60.3504 28.964C60.3504 28.0307 60.5371 27.0227 60.9104 25.94L63.0384 26.78C62.7397 27.6387 62.5904 28.3853 62.5904 29.02C62.5904 29.6453 62.7351 30.1213 63.0244 30.448C63.3231 30.784 63.7571 30.952 64.3264 30.952C64.5597 30.952 64.8491 30.9147 65.1944 30.84C65.8104 30.7 66.2584 30.5833 66.5384 30.49C66.8184 30.3967 67.0144 30.2847 67.1264 30.154C67.2477 30.0327 67.3084 29.8647 67.3084 29.65C67.3084 29.5847 67.2991 29.468 67.2804 29.3L66.7064 25.45L68.9184 25.086L69.0024 25.674L69.2264 26.99C69.2637 27.186 69.3197 27.3167 69.3944 27.382C69.4784 27.4473 69.6091 27.48 69.7864 27.48H70.1644L70.3044 28.74L70.1644 30H69.8704ZM63.6404 23.826H65.7684V25.954H63.6404V23.826ZM77.4177 30C77.1004 30 76.7924 29.9393 76.4937 29.818C76.2044 29.6873 75.9384 29.5147 75.6957 29.3C75.201 29.7667 74.5944 30 73.8757 30C73.2504 30 72.6997 29.7713 72.2237 29.314C71.7197 29.7713 71.1457 30 70.5017 30H70.0257V27.48H70.5017C70.791 27.48 70.973 27.452 71.0477 27.396C71.1317 27.3307 71.1737 27.2047 71.1737 27.018V25.282H73.2737V27.018C73.283 27.1767 73.3297 27.2933 73.4137 27.368C73.4977 27.4427 73.6517 27.48 73.8757 27.48C74.1557 27.48 74.3377 27.452 74.4217 27.396C74.5057 27.3307 74.5477 27.2047 74.5477 27.018V25.282H76.6477V27.018C76.657 27.1393 76.7084 27.242 76.8017 27.326C76.9044 27.4007 77.0584 27.438 77.2637 27.438C77.5624 27.438 77.763 27.4147 77.8657 27.368C77.9684 27.312 78.001 27.2233 77.9637 27.102L77.5017 25.38L79.5177 24.778L79.9797 26.5L80.0077 26.612C80.0917 26.892 80.2364 27.1067 80.4417 27.256C80.6564 27.4053 80.9084 27.48 81.1977 27.48L81.3377 28.74L81.1977 30C80.4324 30 79.779 29.7667 79.2377 29.3C79.0044 29.524 78.729 29.6967 78.4117 29.818C78.1037 29.9393 77.7724 30 77.4177 30ZM73.6377 21.95H74.7857V20.606H76.5917V21.95H77.7117L77.7257 24.008H75.9757H75.3597H73.6237L73.6377 21.95ZM81.0589 27.48H83.7469C84.0456 27.48 84.2369 27.4567 84.3209 27.41C84.4049 27.3633 84.4376 27.27 84.4189 27.13L84.2649 25.408L86.5049 25.184L86.6589 26.906L86.6729 27.018C86.6916 27.1673 86.7149 27.2747 86.7429 27.34C86.7802 27.396 86.8362 27.4333 86.9109 27.452C86.9949 27.4707 87.1349 27.48 87.3309 27.48L87.4709 28.74L87.3309 30C86.6122 30 86.0196 29.832 85.5529 29.496C85.0582 29.832 84.4562 30 83.7469 30H81.0589V27.48ZM80.6949 31.176H84.4469V33.066H80.6949V31.176ZM94.3936 30C93.6656 30 93.0029 29.748 92.4056 29.244C92.1722 29.4867 91.8782 29.6733 91.5236 29.804C91.1782 29.9347 90.7862 30 90.3476 30H87.1976V27.48H90.3756C90.5156 27.48 90.6089 27.4567 90.6556 27.41C90.6929 27.3727 90.7116 27.3307 90.7116 27.284C90.7116 27.2093 90.6789 27.1347 90.6136 27.06L87.5476 22.72L88.0516 20.816L93.1196 18.954L93.9036 21.306L90.3476 22.608L92.3076 25.548C92.3356 25.5947 92.4382 25.7673 92.6156 26.066C92.9422 26.626 93.2269 27.004 93.4696 27.2C93.7216 27.3867 94.0296 27.48 94.3936 27.48H94.5896L94.7296 28.74L94.5896 30H94.3936ZM94.4437 27.48H97.1317C97.4303 27.48 97.6217 27.4567 97.7057 27.41C97.7897 27.3633 97.8223 27.27 97.8037 27.13L97.6497 25.408L99.8897 25.184L100.044 26.906L100.058 27.018C100.076 27.1673 100.1 27.2747 100.128 27.34C100.165 27.396 100.221 27.4333 100.296 27.452C100.38 27.4707 100.52 27.48 100.716 27.48L100.856 28.74L100.716 30C99.997 30 99.4043 29.832 98.9377 29.496C98.443 29.832 97.841 30 97.1317 30H94.4437V27.48ZM94.0797 31.176H97.8317V33.066H94.0797V31.176ZM104.488 30C103.723 30 103.13 29.818 102.71 29.454C102.216 29.818 101.614 30 100.904 30H100.582V27.48H100.904C101.184 27.48 101.366 27.452 101.45 27.396C101.544 27.3307 101.586 27.2187 101.576 27.06L101.31 20.116L103.55 20.004L103.816 26.766V26.864C103.835 27.116 103.891 27.284 103.984 27.368C104.078 27.4427 104.246 27.48 104.488 27.48H104.768L104.908 28.74L104.768 30H104.488ZM104.629 27.48H106.827C107.163 27.48 107.401 27.4427 107.541 27.368C107.681 27.2933 107.751 27.1673 107.751 26.99C107.751 26.8967 107.728 26.7473 107.681 26.542L107.135 24.456L109.291 23.812L109.879 26.024C109.973 26.3693 110.019 26.7147 110.019 27.06C110.019 27.6293 109.884 28.138 109.613 28.586C109.352 29.034 108.979 29.384 108.493 29.636C108.017 29.8787 107.462 30 106.827 30H104.629V27.48ZM105.973 31.092H106.589H108.339L108.325 33.15H107.205V34.494H105.399V33.15H104.251L104.237 31.092H105.973ZM111.695 20.116L113.935 20.004L114.313 29.972L112.073 30.07L111.695 20.116ZM124.999 30C123.534 30 122.521 29.9767 121.961 29.93C121.401 29.874 120.907 29.7527 120.477 29.566C119.945 29.3327 119.535 28.9827 119.245 28.516C118.956 28.0493 118.811 27.5173 118.811 26.92C118.811 26.5747 118.858 26.234 118.951 25.898L119.497 23.826L121.653 24.47L121.093 26.654C121.065 26.766 121.051 26.8547 121.051 26.92C121.051 27.004 121.075 27.0693 121.121 27.116C121.168 27.1627 121.252 27.214 121.373 27.27C121.551 27.354 121.873 27.41 122.339 27.438C122.806 27.466 123.739 27.48 125.139 27.48H125.153C126.497 27.48 127.403 27.466 127.869 27.438C128.345 27.4007 128.686 27.34 128.891 27.256C129.003 27.2093 129.083 27.158 129.129 27.102C129.176 27.046 129.199 26.962 129.199 26.85C129.199 26.71 129.176 26.5607 129.129 26.402L128.597 24.456L130.753 23.812L131.285 25.758C131.388 26.1127 131.439 26.4953 131.439 26.906C131.439 27.5033 131.295 28.0353 131.005 28.502C130.725 28.9687 130.319 29.3233 129.787 29.566C129.358 29.762 128.854 29.8833 128.275 29.93C127.706 29.9767 126.665 30 125.153 30H125.139H125.125H124.999ZM124.061 31.05H126.189V33.178H124.061V31.05ZM133.749 31.12C134.673 30.9333 135.345 30.784 135.765 30.672C136.194 30.5693 136.502 30.462 136.689 30.35C136.875 30.238 136.987 30.098 137.025 29.93C136.623 29.9767 136.208 30 135.779 30C135.219 30 134.715 29.8647 134.267 29.594C133.819 29.3233 133.469 28.95 133.217 28.474C132.965 27.998 132.839 27.4613 132.839 26.864C132.839 26.2573 132.969 25.6973 133.231 25.184C133.501 24.6613 133.865 24.246 134.323 23.938C134.789 23.6207 135.303 23.462 135.863 23.462C136.423 23.462 136.927 23.6113 137.375 23.91C137.832 24.1993 138.201 24.6053 138.481 25.128C138.77 25.6507 138.952 26.248 139.027 26.92L139.265 29.188C139.293 29.4213 139.307 29.65 139.307 29.874C139.307 30.6207 139.134 31.218 138.789 31.666C138.453 32.114 137.925 32.478 137.207 32.758C136.497 33.0473 135.494 33.3227 134.197 33.584L133.749 31.12ZM135.093 26.878C135.093 27.074 135.144 27.2233 135.247 27.326C135.359 27.4287 135.536 27.48 135.779 27.48C136.152 27.48 136.502 27.4567 136.829 27.41L136.815 27.228C136.777 26.8173 136.675 26.5093 136.507 26.304C136.339 26.0893 136.124 25.982 135.863 25.982C135.629 25.982 135.443 26.066 135.303 26.234C135.163 26.3927 135.093 26.6073 135.093 26.878Z" fill="black"/>
</svg>
