<svg width="81" height="80" viewBox="0 0 81 80" fill="none" xmlns="http://www.w3.org/2000/svg">
<rect x="29.2109" y="33.4214" width="39.4875" height="29.3625" rx="6.075" fill="#95E4C1"/>
<path d="M59.8516 41V51.4C59.8516 55.8735 56.2251 59.5 51.7516 59.5H41.8516" stroke="#0B2C6E" stroke-width="3.0375" stroke-linecap="round"/>
<path d="M21.8535 39L24.1316 24.6808C24.8354 20.2564 28.6509 17 33.1309 17H52.1081C56.5741 17 60.3819 20.2366 61.1015 24.6442L62.5667 33.618C63.2411 37.7489 60.0527 41.5 55.8671 41.5H55.5687C52.766 41.5 50.2911 39.6721 49.4668 36.9933V36.9933C49.2515 36.2936 48.2863 36.2289 47.9795 36.8936L47.4824 37.9708C46.4894 40.1222 44.3361 41.5 41.9665 41.5H37.8535" stroke="#0B2C6E" stroke-width="3.0375" stroke-linecap="round"/>
<path d="M48.8535 17V27" stroke="#0B2C6E" stroke-width="3.0375" stroke-linecap="round"/>
<path d="M36.8516 17V27" stroke="#0B2C6E" stroke-width="3.0375" stroke-linecap="round"/>
<path d="M34.2754 50.6343H12.0004" stroke="#0B2C6E" stroke-width="3.0375" stroke-linecap="round"/>
<path d="M12 46.5841V58.7341C12 59.8525 12.9066 60.7591 14.025 60.7591H33.2625C34.3809 60.7591 35.2875 59.8525 35.2875 58.7341V46.5841C35.2875 45.4657 34.3809 44.5591 33.2625 44.5591H14.025C12.9066 44.5591 12 45.4657 12 46.5841Z" stroke="#0B2C6E" stroke-width="3.0375" stroke-linecap="round"/>
</svg>
